# xmcd CD database file generated by OrangeCD 5.1
#
# Track frame offsets:
#	150
#	17615
#	31173
#	45374
#	65366
#	82278
#	100650
#	121616
#	139862
#	158091
#	172674
#	185605
#	202331
#	221811
#	234897
#	249799
#	262497
#	278416
#	301217
#	313564
#	331618
#
# Disc length: 4633 seconds
#
# Revision: 5
# Processed by: cddbd v1.4PL0 Copyright (c) Steve Scherf et al.
# Submitted via: OrangeCD 5.1
#
DISCID=13121715
DTITLE=Hopkins, Lightnin' - Fishing Clothes - The Jewel Recordings 1965 - 1969 
DTITLE=[CDOne)
DYEAR=2001
DGENRE=Blues
TTITLE0=Wig Wearing Woman
TTITLE1=Move On Out , part 1
TTITLE2=Move On Out, part 2
TTITLE3=Back Door Friend
TTITLE4=Fishing Clothes (unedited version)
TTITLE5=Gamblers Blues
TTITLE6=Moaning Blues (aka Morning Blues)
TTITLE7=Found My Baby Crying
TTITLE8=My Money is What You Want
TTITLE9=Race Track
TTITLE10=Long Way from Home
TTITLE11=I'm Tired of Trouble
TTITLE12=Vietnam War, parts 1 and 2
TTITLE13=Lightnin' Strikes One More Time
TTITLE14=Walkin' Blues
TTITLE15=Talkin' Some Sense
TTITLE16=Lonesome Lightnin'
TTITLE17=My Suggestion
TTITLE18=Uncle Stan the Hip Hit Record Man
TTITLE19=You're Gonna Miss Me
TTITLE20=The Purple Puppy
EXTD=YEAR: 2001
EXTT0=
EXTT1=
EXTT2=
EXTT3=
EXTT4=
EXTT5=
EXTT6=
EXTT7=
EXTT8=
EXTT9=
EXTT10=
EXTT11=
EXTT12=
EXTT13=
EXTT14=
EXTT15=
EXTT16=
EXTT17=
EXTT18=
EXTT19=
EXTT20=
PLAYORDER=
